<?xml version="1.0" encoding="utf-8"?>
<!-- Generator: Adobe Illustrator 24.3.0, SVG Export Plug-In . SVG Version: 6.00 Build 0)  -->
<svg version="1.1" id="color" xmlns="http://www.w3.org/2000/svg" xmlns:xlink="http://www.w3.org/1999/xlink" x="0px" y="0px"
	 viewBox="0 0 512 512" style="enable-background:new 0 0 512 512;" xml:space="preserve">
<style type="text/css">
	.st0{fill:#5DAF7E;}
	.st1{fill:#FFFFFF;}
	.st2{fill:#FFC107;}
	.st3{fill:#FFD54F;}
</style>
<path class="st0" d="M373.3,234.7c-76.5,0-138.7,62.2-138.7,138.7S296.9,512,373.3,512S512,449.8,512,373.3S449.8,234.7,373.3,234.7
	z"/>
<path class="st1" d="M454.2,344.7l-74.7,85.3c-3.9,4.4-9.4,7.1-15.3,7.3h-0.7c-5.7,0-11.1-2.2-15.1-6.3l-42.7-42.7
	c-8.3-8.3-8.3-21.8,0-30.2c8.3-8.3,21.8-8.3,30.2,0l26.5,26.5l59.6-68.2c7.8-8.8,21.2-9.8,30.1-2C461.1,322.4,462,335.9,454.2,344.7
	L454.2,344.7z"/>
<path class="st2" d="M0,224v85.3c0,51.8,134,53.3,149.3,53.3c4.9,0,22.2-0.2,43.1-2.1c2.3-32.9,13.4-63.4,30.9-89.2
	c12.8-18.6,28.6-34.6,47.1-47.4L0,224z"/>
<path class="st3" d="M0,138.7V224c0,51.8,134,53.3,149.3,53.3c7.3,0,40.5-0.4,74-6c12.8-18.6,28.6-34.6,47.1-47.4
	c8.7-6.2,18.1-11.5,28.2-15.8v-69.5H0z"/>
<path class="st2" d="M149.3,192C134,192,0,190.5,0,138.7V53.3h298.7v85.3C298.7,190.5,164.6,192,149.3,192z"/>
<path class="st3" d="M149.3,106.7C134,106.7,0,105.2,0,53.3S134,0,149.3,0s149.3,1.5,149.3,53.3S164.6,106.7,149.3,106.7z"/>
</svg>
